# xmcd CD database file
#
# Track frame offsets:
#	150
#	17249
#	39074
#	57585
#	67054
#	78338
#	92871
#	109529
#	122380
#	136215
#	150662
#	161218
#	176415
#	191113
#	203575
#	216600
#	226334
#	240785
#	255990
#	268079
#
# Disc length: 3759 seconds
#
# Revision: 1
# Processed by: cddbd v1.5.2PL0 Copyright (c) Steve Scherf et al.
# Submitted via: CDex 1.70beta2
#
DISCID=0d0ead14
DTITLE=Judy Garland - Live At Carnegie Hall 2
DYEAR=1961
DGENRE=Jazz
TTITLE0=You Made Me Love You (Dear Mister Gable) - For Me And My Gal - The Trolley Song
TTITLE1=Rock-A-Bye Your Baby With A Dixie Melody
TTITLE2=Over the Rainbow
TTITLE3=Swanee
TTITLE4=After You've Gone
TTITLE5=Chicago
TTITLE6=Me And My Shadow
TTITLE7=I Gotta Right To Sing The Blues
TTITLE8=Among My Souvenirs
TTITLE9=I Get The Blues When It Rains
TTITLE10=This Is It
TTITLE11=More Than You Know
TTITLE12=I Am Loved
TTITLE13=I'm Confessin' That I Love You
TTITLE14=Old Devil Moon
TTITLE15=Down With Love
TTITLE16=Yes
TTITLE17=It Was Never You
TTITLE18=If I Love Again
TTITLE19=I've Confessed To The Breeze
EXTD=YEAR: 1961
EXTT0=
EXTT1=
EXTT2=
EXTT3=
EXTT4=
EXTT5=
EXTT6=
EXTT7=
EXTT8=
EXTT9=
EXTT10=
EXTT11=
EXTT12=
EXTT13=
EXTT14=
EXTT15=
EXTT16=
EXTT17=
EXTT18=
EXTT19=
PLAYORDER=
